# xmcd
#
# Track frame offsets: 
#        150
#        14901
#        31594
#        52960
#
# Disc length: 1057 seconds
#
# Revision: 4
# Processed by: cddbd v1.5.2PL0 Copyright (c) Steve Scherf et al.
# Submitted via: ExactAudioCopy v1.0b3
#
DISCID=28041f04
DTITLE=Rednex - Hold Me For A While
DYEAR=2000
DGENRE=Pop
TTITLE0=Hold Me For A While (Radio Edit)
TTITLE1=Hold Me For A While (Alternative Radio Edit)
TTITLE2=Hold Me For A While (Album Version)
TTITLE3=Hold Me For A While (The Midnight Sun Remix)
EXTD=
EXTT0=
EXTT1=
EXTT2=
EXTT3=
PLAYORDER=
